<svg xmlns="http://www.w3.org/2000/svg" width="1200" height="760" viewBox="0 0 1200 760">
  <defs>
    <linearGradient id="bg" x1="0" y1="0" x2="1" y2="1"><stop stop-color="#03050c"/><stop offset=".58" stop-color="#0b1022"/><stop offset="1" stop-color="#050507"/></linearGradient>
    <linearGradient id="clip" x1="0" y1="0" x2="1" y2="1"><stop stop-color="#19c3ee"/><stop offset="1" stop-color="#6c4cf0"/></linearGradient>
    <linearGradient id="wave" x1="0" y1="0" x2="1" y2="0"><stop stop-color="#6ee7c8"/><stop offset=".5" stop-color="#19c3ee"/><stop offset="1" stop-color="#6c4cf0"/></linearGradient>
  </defs>
  <rect width="1200" height="760" fill="url(#bg)"/>
  <circle cx="230" cy="130" r="260" fill="#6c4cf0" opacity=".12"/>
  <circle cx="890" cy="500" r="360" fill="#19c3ee" opacity=".13"/>
  <g transform="translate(95 130)">
    <rect width="1010" height="520" rx="34" fill="#0b0f1c" stroke="#fff" stroke-opacity=".14"/>
    <rect y="0" width="1010" height="58" rx="34" fill="#ffffff" opacity=".07"/>
    <circle cx="34" cy="29" r="10" fill="#ff5f57"/><circle cx="66" cy="29" r="10" fill="#febc2e"/><circle cx="98" cy="29" r="10" fill="#28c840"/>
    <text x="505" y="37" text-anchor="middle" fill="#cfd2dd" font-family="Arial" font-size="18" font-weight="700">BassMarker Pro / Final Cut Pro timeline</text>
    <g transform="translate(42 94)">
      <rect width="925" height="176" rx="18" fill="#12182a"/>
      <rect x="28" y="28" width="232" height="120" rx="12" fill="#16223a"/>
      <rect x="284" y="28" width="276" height="120" rx="12" fill="#101827"/>
      <rect x="584" y="28" width="312" height="120" rx="12" fill="#15233b"/>
      <path d="M52 120 C142 52 206 168 290 96 C392 8 454 162 552 90 C652 18 712 156 802 92 C850 58 882 74 910 42" fill="none" stroke="url(#wave)" stroke-width="5" opacity=".82"/>
      <g fill="#6ee7c8">
        <path d="M142 50 l13 13 v40 h-26 v-40z"/><path d="M322 74 l13 13 v40 h-26 v-40z"/><path d="M476 49 l13 13 v40 h-26 v-40z"/><path d="M646 68 l13 13 v40 h-26 v-40z"/><path d="M818 44 l13 13 v40 h-26 v-40z"/>
      </g>
    </g>
    <g transform="translate(42 315)">
      <rect width="925" height="128" rx="18" fill="#111827"/>
      <g>
        <rect x="22" y="20" width="110" height="66" rx="8" fill="url(#clip)" opacity=".8"/><rect x="146" y="20" width="110" height="66" rx="8" fill="url(#clip)" opacity=".58"/><rect x="270" y="20" width="110" height="66" rx="8" fill="url(#clip)" opacity=".76"/><rect x="394" y="20" width="110" height="66" rx="8" fill="url(#clip)" opacity=".52"/><rect x="518" y="20" width="110" height="66" rx="8" fill="url(#clip)" opacity=".82"/><rect x="642" y="20" width="110" height="66" rx="8" fill="url(#clip)" opacity=".62"/><rect x="766" y="20" width="110" height="66" rx="8" fill="url(#clip)" opacity=".86"/>
      </g>
      <rect x="22" y="100" width="854" height="6" rx="3" fill="url(#wave)"/>
    </g>
  </g>
</svg>