<svg xmlns="http://www.w3.org/2000/svg" width="1200" height="760" viewBox="0 0 1200 760">
  <defs>
    <linearGradient id="bg" x1="0" y1="0" x2="1" y2="1"><stop stop-color="#070914"/><stop offset=".52" stop-color="#090d1e"/><stop offset="1" stop-color="#050507"/></linearGradient>
    <linearGradient id="cyan" x1="0" y1="0" x2="1" y2="1"><stop stop-color="#19c3ee"/><stop offset=".55" stop-color="#3d7bf0"/><stop offset="1" stop-color="#6c4cf0"/></linearGradient>
    <radialGradient id="glow" cx="50%" cy="46%" r="58%"><stop stop-color="#19c3ee" stop-opacity=".42"/><stop offset=".45" stop-color="#6c4cf0" stop-opacity=".12"/><stop offset="1" stop-color="#000" stop-opacity="0"/></radialGradient>
    <filter id="soft"><feGaussianBlur stdDeviation="18"/></filter>
  </defs>
  <rect width="1200" height="760" fill="url(#bg)"/>
  <rect x="0" y="0" width="1200" height="760" fill="url(#glow)"/>
  <g opacity=".16" stroke="#19c3ee" stroke-width="1">
    <path d="M0 580 H1200"/><path d="M0 640 H1200"/><path d="M0 700 H1200"/>
    <path d="M140 760 L520 130"/><path d="M320 760 L610 120"/><path d="M520 760 L700 116"/><path d="M760 760 L790 120"/><path d="M1040 760 L880 120"/>
  </g>
  <ellipse cx="610" cy="395" rx="390" ry="125" fill="none" stroke="#19c3ee" stroke-opacity=".5" stroke-width="3"/>
  <ellipse cx="610" cy="395" rx="305" ry="90" fill="none" stroke="#f5b942" stroke-opacity=".34" stroke-width="2"/>
  <ellipse cx="610" cy="395" rx="220" ry="62" fill="none" stroke="#6c4cf0" stroke-opacity=".42" stroke-width="2"/>
  <g transform="translate(450 245)">
    <rect x="0" y="0" width="320" height="210" rx="42" fill="#11172b" stroke="#ffffff" stroke-opacity=".16"/>
    <rect x="30" y="28" width="260" height="154" rx="32" fill="url(#cyan)" opacity=".28"/>
    <text x="160" y="124" text-anchor="middle" fill="#fff" font-family="Arial, Helvetica, sans-serif" font-size="78" font-weight="800">AI</text>
  </g>
  <g fill="#19c3ee">
    <circle cx="250" cy="240" r="11"/><circle cx="930" cy="215" r="10"/><circle cx="980" cy="500" r="13"/><circle cx="350" cy="540" r="9"/>
  </g>
  <g transform="translate(115 150) rotate(8)">
    <rect width="310" height="142" rx="24" fill="#0d1223" stroke="#ffffff" stroke-opacity=".16"/>
    <text x="28" y="44" fill="#fff" font-size="26" font-family="Arial" font-weight="800">Bass energy map</text>
    <text x="28" y="76" fill="#9aa0b4" font-size="20" font-family="Arial">frequency peaks detected</text>
    <g transform="translate(28 98)">
      <rect width="42" height="24" rx="4" fill="url(#cyan)"/><rect x="52" y="-14" width="42" height="38" rx="4" fill="url(#cyan)"/><rect x="104" y="-3" width="42" height="27" rx="4" fill="url(#cyan)"/><rect x="156" y="-28" width="42" height="52" rx="4" fill="url(#cyan)"/><rect x="208" y="-8" width="42" height="32" rx="4" fill="url(#cyan)"/>
    </g>
  </g>
  <g transform="translate(820 455) rotate(-11)">
    <rect width="300" height="144" rx="24" fill="#0d1223" stroke="#ffffff" stroke-opacity=".16"/>
    <text x="28" y="46" fill="#fff" font-size="27" font-family="Arial" font-weight="800">Marker cloud</text>
    <text x="28" y="78" fill="#9aa0b4" font-size="20" font-family="Arial">beats ready for FCP</text>
    <g transform="translate(28 102)">
      <circle cx="0" cy="0" r="8" fill="#6ee7c8"/><circle cx="54" cy="-18" r="8" fill="#19c3ee"/><circle cx="112" cy="0" r="8" fill="#f5b942"/><circle cx="176" cy="-26" r="8" fill="#6ee7c8"/><circle cx="232" cy="-6" r="8" fill="#19c3ee"/>
    </g>
  </g>
  <circle cx="610" cy="395" r="245" fill="#19c3ee" opacity=".12" filter="url(#soft)"/>
</svg>